<svg xmlns="http://www.w3.org/2000/svg" xmlns:xlink="http://www.w3.org/1999/xlink" width="128" height="128" viewBox="0 0 128 128"><defs><path id="a" d="M0 0h128v128H0z"/></defs><g fill="none" fill-rule="evenodd"><mask id="b" fill="#fff"><use xlink:href="#a"/></mask><g fill="#000" fill-opacity=".02" mask="url(#b)"><path d="M288 128l-32 32-288-288 32-32 288 288zm-64 64l-32 32L-96-64l32-32 288 288zm-64 64l-32 32L-160 0l32-32 288 288z"/><path d="M-160 128l32 32 288-288-32-32-288 288zm64 64l32 32L224-64l-32-32-288 288zm64 64l32 32L288 0l-32-32-288 288z"/></g></g></svg>